<svg xmlns="http://www.w3.org/2000/svg" viewBox="0 0 32 32" width="24" height="24">
  <circle cx="16" cy="16" r="16" fill="#FFD700"/>
  <path fill="#111" d="M16 6c-5.5 0-10 4.5-10 10 0 4.4 2.9 8.1 6.8 9.4.5.1.7-.2.7-.5v-1.7c-2.8.6-3.4-1.2-3.4-1.2-.5-1.1-1.2-1.4-1.2-1.4-1-.7.1-.7.1-.7 1.1.1 1.7 1.1 1.7 1.1 1 .1.8 1.6 2.7 1.2.1-.7.4-1.2.7-1.5-2.2-.2-4.5-1.1-4.5-4.8 0-1.1.4-2 1-2.7-.1-.2-.4-1.2.1-2.5 0 0 .8-.3 2.7 1 .8-.2 1.7-.3 2.5-.3s1.7.1 2.5.3c1.9-1.3 2.7-1 2.7-1 .5 1.3.2 2.3.1 2.5.6.7 1 1.6 1 2.7 0 3.7-2.3 4.6-4.5 4.8.4.3.8 1 .8 2v3c0 .3.2.6.7.5C23.1 24.1 26 20.4 26 16c0-5.5-4.5-10-10-10z"/>
</svg>
